<?xml version="1.0" encoding="UTF-8"?>
<svg width="13px" height="14px" viewBox="0 0 13 14" version="1.1" xmlns="http://www.w3.org/2000/svg" xmlns:xlink="http://www.w3.org/1999/xlink">
    <!-- Generator: Sketch 56 (81588) - https://sketch.com -->
    <title>place-24px</title>
    <desc>Created with Sketch.</desc>
    <g id="Page-1" stroke="none" stroke-width="1" fill="none" fill-rule="evenodd">
        <g id="SearchResults-Desktop-Final-BiggerMap-Copy-2" transform="translate(-1352.000000, -1858.000000)">
            <g id="Hotel-Resault-Item-Copy-7" transform="translate(716.500000, 1797.500000)">
                <g id="place-24px-copy-6" transform="translate(635.996606, 61.748303)">
                    <g id="place-24px">
                        <polygon id="Path" points="0 0 12 0 12 12 0 12"></polygon>
                        <path d="M6,1 C4.065,1 2.5,2.565 2.5,4.5 C2.5,7.125 6,11 6,11 C6,11 9.5,7.125 9.5,4.5 C9.5,2.565 7.935,1 6,1 Z M3.5,4.5 C3.5,3.12 4.62,2 6,2 C7.38,2 8.5,3.12 8.5,4.5 C8.5,5.94 7.06,8.095 6,9.44 C4.96,8.105 3.5,5.925 3.5,4.5 Z" id="Shape" fill="#FBBC04" fill-rule="nonzero"></path>
                        <circle id="Oval" fill="#FBBC04" cx="6" cy="4.5" r="1.25"></circle>
                    </g>
                </g>
            </g>
        </g>
    </g>
</svg>